PathFileType	4	(X/Y/Z)	/Users/itak/Documents/Research/Walk-IL/dataset/trc/00145_00007.trc
DataRate	CameraRate	NumFrames	NumMarkers	Units	OrigDataRate	OrigDataStartFrame	OrigNumFrames
100.000000	100.000000	4	53	mm	100.000000	0	514
Frame#	Time	RPSI			LPSI			L3			STRN			T10			C7			CLAV			RBAK			LBAK			LSHO			LUPA			LAEL			LAOL			LWTS			LWPS			LFRA			LIFD			LHPS			LHTS			RSHO			RUPA			RAEL			RAOL			RWTS			RWPS			RFRA			RIFD			RHTS			RHPS			RBHD			LFHD			RFHD			LBHD			LHIP			RHIP			RASI			LASI			LKNE			LTHI			LANK			LTIP			LTOE			LMT1			LMT5			LHEE			RKNE			RTHI			RANK			RTIP			RTOE			RMT1			RMT5			RHEE			
		X1	Y1	Z1	X2	Y2	Z2	X3	Y3	Z3	X4	Y4	Z4	X5	Y5	Z5	X6	Y6	Z6	X7	Y7	Z7	X8	Y8	Z8	X9	Y9	Z9	X10	Y10	Z10	X11	Y11	Z11	X12	Y12	Z12	X13	Y13	Z13	X14	Y14	Z14	X15	Y15	Z15	X16	Y16	Z16	X17	Y17	Z17	X18	Y18	Z18	X19	Y19	Z19	X20	Y20	Z20	X21	Y21	Z21	X22	Y22	Z22	X23	Y23	Z23	X24	Y24	Z24	X25	Y25	Z25	X26	Y26	Z26	X27	Y27	Z27	X28	Y28	Z28	X29	Y29	Z29	X30	Y30	Z30	X31	Y31	Z31	X32	Y32	Z32	X33	Y33	Z33	X34	Y34	Z34	X35	Y35	Z35	X36	Y36	Z36	X37	Y37	Z37	X38	Y38	Z38	X39	Y39	Z39	X40	Y40	Z40	X41	Y41	Z41	X42	Y42	Z42	X43	Y43	Z43	X44	Y44	Z44	X45	Y45	Z45	X46	Y46	Z46	X47	Y47	Z47	X48	Y48	Z48	X49	Y49	Z49	X50	Y50	Z50	X51	Y51	Z51	X52	Y52	Z52	X53	Y53	Z53	

1	0	-776.8627319335938	1129.737915039062	1222.234375	-777.8838500976562	1130.910522460938	1088.124877929688	-784.45751953125	1159.724853515625	1152.9619140625	-578.85595703125	1363.641845703125	1150.625610351562	-831.751220703125	1307.065063476562	1151.384521484375	-808.6878051757812	1599.8369140625	1138.472534179688	-622.2843627929688	1496.59326171875	1146.93408203125	-856.3372802734375	1413.388916015625	1224.358032226562	-814.6340942382812	1579.769653320312	1035.94677734375	-726.8724975585938	1567.021240234375	967.9039916992188	-737.706787109375	1433.543334960938	899.484619140625	-696.5764770507812	1216.063354492188	880.5843505859375	-761.4706420898438	1196.556030273438	938.1683959960938	-550.6812744140625	982.2604370117188	931.00244140625	-626.7747802734375	940.0437622070312	905.09228515625	-660.7822265625	1103.330932617188	879.9627075195312	-496.6493835449219	796.9969482421875	952.852294921875	-582.7120361328125	872.6113891601562	907.1030883789062	-519.6293334960938	898.9432983398438	922.6484375	-751.8560791015625	1580.75341796875	1320.387573242188	-766.8320922851562	1506.0361328125	1383.895141601562	-763.3692626953125	1210.49365234375	1397.180297851562	-765.0429077148438	1210.916870117188	1301.5595703125	-604.145751953125	976.0094604492188	1392.15087890625	-680.6157836914062	954.845703125	1416.54638671875	-737.0087890625	1138.374755859375	1412.919677734375	-562.0935668945312	784.88525390625	1381.121948242188	-567.7327270507812	871.5840454101562	1401.931396484375	-636.1429443359375	858.5812377929688	1423.870483398438	-754.188720703125	1770.277099609375	1229.490356445312	-637.4346923828125	1847.3193359375	1058.891479492188	-604.2835083007812	1855.012329101562	1184.7734375	-795.8097534179688	1765.853271484375	1100.97119140625	-685.1351928710938	1040.257446289062	979.4406127929688	-647.017333984375	1033.321533203125	1337.150512695312	-566.92529296875	1106.86865234375	1284.827392578125	-577.5027465820312	1106.43505859375	1018.417541503906	-673.9302368164062	539.8489379882812	1005.319091796875	-692.5880737304688	686.5673217773438	979.7825927734375	-792.9597778320312	39.83524322509766	1013.70458984375	-779.2073364257812	295.60546875	980.8053588867188	-561.876220703125	42.48929977416992	1071.481079101562	-643.6669921875	44.39040374755859	1105.195678710938	-666.2405395507812	40.17464447021484	989.8048095703125	-862.9996948242188	40.79523849487305	1075.903442382812	-676.853759765625	541.814208984375	1302.38671875	-636.0125732421875	820.44775390625	1328.684204101562	-790.14013671875	33.50804138183594	1280.233764648438	-708.795654296875	410.4732666015625	1311.618896484375	-555.839599609375	47.91878890991211	1237.783203125	-614.5242919921875	37.84479904174805	1193.73583984375	-657.4849243164062	42.88146591186523	1308.97900390625	-846.4354858398438	34.60829925537109	1228.824340820312	
2	0.01	-776.939453125	1129.763549804688	1222.135009765625	-777.7771606445312	1130.9296875	1087.993041992188	-784.5007934570312	1159.742431640625	1152.83251953125	-578.887939453125	1363.63623046875	1150.791259765625	-831.7423706054688	1307.049194335938	1151.1708984375	-808.6749267578125	1599.804931640625	1138.343994140625	-622.2907104492188	1496.576538085938	1147.057495117188	-856.3732299804688	1413.348388671875	1224.1865234375	-814.458740234375	1579.746337890625	1035.806274414062	-726.6387329101562	1566.995849609375	967.888916015625	-737.3994750976562	1433.500122070312	899.462646484375	-696.34912109375	1215.951538085938	880.7095947265625	-761.4073486328125	1196.59130859375	938.1853637695312	-551.1702880859375	981.7310791015625	931.3699340820312	-627.3733520507812	939.769287109375	905.3538208007812	-660.8784790039062	1103.151733398438	880.1477661132812	-497.7211608886719	796.3007202148438	953.3220825195312	-583.4592895507812	872.1765747070312	907.4534912109375	-520.3872680664062	898.2987670898438	923.0899658203125	-752.1871337890625	1580.726318359375	1320.28759765625	-767.0595703125	1506.0419921875	1383.8193359375	-763.044677734375	1210.536254882812	1397.492919921875	-764.8240356445312	1210.847534179688	1301.911865234375	-603.1270141601562	976.5343627929688	1392.488647460938	-679.4723510742188	955.160400390625	1417.01611328125	-736.4107055664062	1138.506713867188	1413.256958007812	-560.4154663085938	785.5347290039062	1381.565673828125	-566.2023315429688	872.2344360351562	1402.275268554688	-634.5900268554688	859.0301513671875	1424.468505859375	-754.2280883789062	1770.398193359375	1229.454223632812	-637.0787353515625	1847.2177734375	1059.010131835938	-604.1026000976562	1854.864135742188	1184.93408203125	-795.6294555664062	1765.981323242188	1100.840209960938	-685.014404296875	1040.244995117188	979.483642578125	-647.2979125976562	1033.354736328125	1337.219116210938	-567.1533813476562	1106.90625	1285.0029296875	-577.3704223632812	1106.412109375	1018.586181640625	-673.8677978515625	539.8222045898438	1005.358764648438	-692.4732666015625	686.5485229492188	979.7972412109375	-792.9473876953125	39.8249397277832	1013.701599121094	-779.1602783203125	295.5937194824219	980.8126831054688	-561.8958740234375	42.49797439575195	1071.477294921875	-643.6672973632812	44.3908576965332	1105.205078125	-666.2447509765625	40.17861938476562	989.8069458007812	-863.0098876953125	40.80352783203125	1075.877197265625	-677.0750122070312	541.8472900390625	1302.466064453125	-636.2705688476562	820.434326171875	1328.831787109375	-790.1514282226562	33.48277282714844	1280.23291015625	-708.889892578125	410.5176391601562	1311.652954101562	-555.85400390625	47.93562316894531	1237.807006835938	-614.521728515625	37.87723159790039	1193.743286132812	-657.501708984375	42.8714714050293	1308.994018554688	-846.4157104492188	34.60238265991211	1228.852416992188	
3	0.02	-777.0396118164062	1129.796264648438	1222.014770507812	-777.6447143554688	1130.9462890625	1087.834106445312	-784.5532836914062	1159.763427734375	1152.67578125	-578.9246215820312	1363.629638671875	1150.997436523438	-831.735107421875	1307.039916992188	1150.915405273438	-808.6534423828125	1599.770263671875	1138.182495117188	-622.2988891601562	1496.556640625	1147.2109375	-856.4265747070312	1413.30517578125	1223.976684570312	-814.2346801757812	1579.721069335938	1035.631225585938	-726.3401489257812	1566.964233398438	967.8695678710938	-737.0086059570312	1433.449462890625	899.4321899414062	-696.0839233398438	1215.818115234375	880.8628540039062	-761.3322143554688	1196.638549804688	938.2073974609375	-551.8472900390625	981.0422973632812	931.8120727539062	-628.1736450195312	939.4096069335938	905.6502075195312	-661.0184326171875	1102.9267578125	880.3726196289062	-499.1849670410156	795.3837890625	953.8964233398438	-584.4949951171875	871.6173706054688	907.864013671875	-521.4071655273438	897.4597778320312	923.6240234375	-752.5805053710938	1580.700561523438	1320.173095703125	-767.3323974609375	1506.04541015625	1383.722534179688	-762.6398315429688	1210.587524414062	1397.881591796875	-764.5604858398438	1210.760498046875	1302.344848632812	-601.8421020507812	977.1836547851562	1392.8916015625	-678.0452270507812	955.549560546875	1417.58203125	-735.6644897460938	1138.670043945312	1413.682861328125	-558.334716796875	786.3385009765625	1382.106323242188	-564.3533325195312	873.0331420898438	1402.704223632812	-632.6527709960938	859.5891723632812	1425.209594726562	-754.2777709960938	1770.552368164062	1229.408203125	-636.6429443359375	1847.08984375	1059.155151367188	-603.8724365234375	1854.688110351562	1185.129272460938	-795.415771484375	1766.139282226562	1100.681274414062	-684.8585205078125	1040.229248046875	979.54052734375	-647.6397094726562	1033.395263671875	1337.307739257812	-567.4325561523438	1106.948852539062	1285.2158203125	-577.2044067382812	1106.380004882812	1018.78857421875	-673.781005859375	539.7877807617188	1005.408935546875	-692.3091430664062	686.5279541015625	979.8211059570312	-792.94482421875	39.81023406982422	1013.699340820312	-779.0956420898438	295.5818176269531	980.8240966796875	-561.9161376953125	42.50835800170898	1071.472534179688	-643.6689453125	44.38932800292969	1105.216064453125	-666.2503051757812	40.1837043762207	989.8101196289062	-863.02001953125	40.80423736572266	1075.848876953125	-677.3427734375	541.888916015625	1302.563110351562	-636.6068725585938	820.42138671875	1329.014526367188	-790.1629638671875	33.45498657226562	1280.234252929688	-709.0076293945312	410.5693664550781	1311.697387695312	-555.86962890625	47.95736694335938	1237.8359375	-614.5218505859375	37.91423416137695	1193.753662109375	-657.5193481445312	42.86036682128906	1309.012573242188	-846.3951416015625	34.5949821472168	1228.884765625	
4	0.03	-777.15966796875	1129.83447265625	1221.88037109375	-777.4931640625	1130.956665039062	1087.657958984375	-784.6113891601562	1159.7861328125	1152.500854492188	-578.9624633789062	1363.622436523438	1151.235107421875	-831.7304077148438	1307.041259765625	1150.6337890625	-808.6220703125	1599.736328125	1137.994995117188	-622.3079833984375	1496.53466796875	1147.386474609375	-856.4981689453125	1413.264038085938	1223.739501953125	-813.97021484375	1579.696411132812	1035.429809570312	-725.9873657226562	1566.927856445312	967.8463745117188	-736.5504760742188	1433.394287109375	899.3939819335938	-695.802734375	1215.67041015625	881.0370483398438	-761.2496948242188	1196.696533203125	938.236572265625	-552.7129516601562	980.2105712890625	932.3009643554688	-629.1718139648438	938.97412109375	905.9555053710938	-661.2072143554688	1102.664672851562	880.6255493164062	-501.0367431640625	794.2651977539062	954.5411376953125	-585.8241577148438	870.9497680664062	908.3031005859375	-522.6821899414062	896.4457397460938	924.2168579101562	-753.009765625	1580.67919921875	1320.052734375	-767.6327514648438	1506.045288085938	1383.60888671875	-762.1695556640625	1210.64501953125	1398.331665039062	-764.2655639648438	1210.658081054688	1302.837646484375	-600.3497314453125	977.9235229492188	1393.332153320312	-676.3984985351562	955.9931640625	1418.212158203125	-734.8035888671875	1138.854614257812	1414.181030273438	-555.95361328125	787.2584838867188	1382.71142578125	-562.2863159179688	873.9424438476562	1403.190063476562	-630.4216918945312	860.2279052734375	1426.052612304688	-754.3336791992188	1770.733032226562	1229.353393554688	-636.1495971679688	1846.941528320312	1059.318481445312	-603.6032104492188	1854.496459960938	1185.34765625	-795.1793823242188	1766.319458007812	1100.501708984375	-684.671630859375	1040.211547851562	979.6099243164062	-648.023193359375	1033.441040039062	1337.413696289062	-567.7440795898438	1106.99267578125	1285.453369140625	-577.0111083984375	1106.33984375	1019.012084960938	-673.6685791015625	539.7469482421875	1005.4677734375	-692.0939331054688	686.5072021484375	979.857177734375	-792.9510498046875	39.79391860961914	1013.698181152344	-779.0137939453125	295.5709533691406	980.8399047851562	-561.9339599609375	42.51918792724609	1071.4677734375	-643.6720581054688	44.38493728637695	1105.2275390625	-666.2567138671875	40.18937683105469	989.814697265625	-863.0302124023438	40.79902648925781	1075.822509765625	-677.64111328125	541.93701171875	1302.672607421875	-636.9916381835938	820.4103393554688	1329.215698242188	-790.1743774414062	33.42740631103516	1280.23828125	-709.1455078125	410.6238708496094	1311.7509765625	-555.8847045898438	47.98384094238281	1237.868286132812	-614.5252685546875	37.95357513427734	1193.7666015625	-657.5364990234375	42.84853744506836	1309.033813476562	-846.37548828125	34.58656311035156	1228.91943359375	
